<?xml version="1.0" encoding="utf-8" ?>
<svg baseProfile="full" height="280.0" version="1.1" width="280.0" xmlns="http://www.w3.org/2000/svg" xmlns:ev="http://www.w3.org/2001/xml-events" xmlns:xlink="http://www.w3.org/1999/xlink"><defs><style type="text/css"><![CDATA[.frame{visibility:hidden; animation:4.5s linear _k infinite;}@keyframes _k{0%,6.666666666666667%{visibility:visible}6.666673333333333%,100%{visibility:hidden}}#_fr0{animation-delay:0.0s}#_fr1{animation-delay:0.3s}#_fr2{animation-delay:0.6s}#_fr3{animation-delay:0.8999999999999999s}#_fr4{animation-delay:1.2s}#_fr5{animation-delay:1.5s}#_fr6{animation-delay:1.7999999999999998s}#_fr7{animation-delay:2.1s}#_fr8{animation-delay:2.4s}#_fr9{animation-delay:2.6999999999999997s}#_fra{animation-delay:3.0s}#_frb{animation-delay:3.3s}#_frc{animation-delay:3.5999999999999996s}#_frd{animation-delay:3.9s}#_fre{animation-delay:4.2s}]]></style></defs><rect fill="white" height="245" width="245" x="0" y="0" /><g class="frame" id="_fr0" transform="scale(1.0)"><rect fill="white" height="280" width="280" x="0" y="0" /><g transform="translate(17.5,17.5)"><g id="vline" stroke="gray"><line stroke-width="1px" x1="35" x2="35" y1="0" y2="210" /><line stroke-width="1px" x1="70" x2="70" y1="0" y2="210" /><line stroke-width="1px" x1="105" x2="105" y1="0" y2="210" /><line stroke-width="1px" x1="140" x2="140" y1="0" y2="210" /><line stroke-width="1px" x1="175" x2="175" y1="0" y2="210" /><line stroke-width="1px" x1="210" x2="210" y1="0" y2="210" /></g><g id="vline" stroke="gray"><line stroke-width="0.1px" x1="0" x2="245" y1="35" y2="35" /><line stroke-width="0.1px" x1="0" x2="245" y1="70" y2="70" /><line stroke-width="0.1px" x1="0" x2="245" y1="105" y2="105" /><line stroke-width="0.1px" x1="0" x2="245" y1="140" y2="140" /><line stroke-width="0.1px" x1="0" x2="245" y1="175" y2="175" /><line stroke-width="0.1px" x1="0" x2="245" y1="210" y2="210" /></g><rect fill="black" height="6" stroke="black" width="245" x="0" y="210" /><rect fill="black" height="245" stroke="black" width="6" x="-6" y="0" /><rect fill="black" height="245" stroke="black" width="6" x="245" y="0" /></g></g><g class="frame" id="_fr1" transform="scale(1.0)"><rect fill="white" height="280" width="280" x="0" y="0" /><g transform="translate(17.5,17.5)"><g id="vline" stroke="gray"><line stroke-width="1px" x1="35" x2="35" y1="0" y2="210" /><line stroke-width="1px" x1="70" x2="70" y1="0" y2="210" /><line stroke-width="1px" x1="105" x2="105" y1="0" y2="210" /><line stroke-width="1px" x1="140" x2="140" y1="0" y2="210" /><line stroke-width="1px" x1="175" x2="175" y1="0" y2="210" /><line stroke-width="1px" x1="210" x2="210" y1="0" y2="210" /></g><g id="vline" stroke="gray"><line stroke-width="0.1px" x1="0" x2="245" y1="35" y2="35" /><line stroke-width="0.1px" x1="0" x2="245" y1="70" y2="70" /><line stroke-width="0.1px" x1="0" x2="245" y1="105" y2="105" /><line stroke-width="0.1px" x1="0" x2="245" y1="140" y2="140" /><line stroke-width="0.1px" x1="0" x2="245" y1="175" y2="175" /><line stroke-width="0.1px" x1="0" x2="245" y1="210" y2="210" /></g><rect fill="black" height="6" stroke="black" width="245" x="0" y="210" /><rect fill="black" height="245" stroke="black" width="6" x="-6" y="0" /><rect fill="black" height="245" stroke="black" width="6" x="245" y="0" /><circle cx="87.5" cy="192.5" fill="black" r="11.666666666666666" stroke="black" /></g></g><g class="frame" id="_fr2" transform="scale(1.0)"><rect fill="white" height="280" width="280" x="0" y="0" /><g transform="translate(17.5,17.5)"><g id="vline" stroke="gray"><line stroke-width="1px" x1="35" x2="35" y1="0" y2="210" /><line stroke-width="1px" x1="70" x2="70" y1="0" y2="210" /><line stroke-width="1px" x1="105" x2="105" y1="0" y2="210" /><line stroke-width="1px" x1="140" x2="140" y1="0" y2="210" /><line stroke-width="1px" x1="175" x2="175" y1="0" y2="210" /><line stroke-width="1px" x1="210" x2="210" y1="0" y2="210" /></g><g id="vline" stroke="gray"><line stroke-width="0.1px" x1="0" x2="245" y1="35" y2="35" /><line stroke-width="0.1px" x1="0" x2="245" y1="70" y2="70" /><line stroke-width="0.1px" x1="0" x2="245" y1="105" y2="105" /><line stroke-width="0.1px" x1="0" x2="245" y1="140" y2="140" /><line stroke-width="0.1px" x1="0" x2="245" y1="175" y2="175" /><line stroke-width="0.1px" x1="0" x2="245" y1="210" y2="210" /></g><rect fill="black" height="6" stroke="black" width="245" x="0" y="210" /><rect fill="black" height="245" stroke="black" width="6" x="-6" y="0" /><rect fill="black" height="245" stroke="black" width="6" x="245" y="0" /><circle cx="87.5" cy="157.5" fill="white" r="11.666666666666666" stroke="black" /><circle cx="87.5" cy="192.5" fill="black" r="11.666666666666666" stroke="black" /></g></g><g class="frame" id="_fr3" transform="scale(1.0)"><rect fill="white" height="280" width="280" x="0" y="0" /><g transform="translate(17.5,17.5)"><g id="vline" stroke="gray"><line stroke-width="1px" x1="35" x2="35" y1="0" y2="210" /><line stroke-width="1px" x1="70" x2="70" y1="0" y2="210" /><line stroke-width="1px" x1="105" x2="105" y1="0" y2="210" /><line stroke-width="1px" x1="140" x2="140" y1="0" y2="210" /><line stroke-width="1px" x1="175" x2="175" y1="0" y2="210" /><line stroke-width="1px" x1="210" x2="210" y1="0" y2="210" /></g><g id="vline" stroke="gray"><line stroke-width="0.1px" x1="0" x2="245" y1="35" y2="35" /><line stroke-width="0.1px" x1="0" x2="245" y1="70" y2="70" /><line stroke-width="0.1px" x1="0" x2="245" y1="105" y2="105" /><line stroke-width="0.1px" x1="0" x2="245" y1="140" y2="140" /><line stroke-width="0.1px" x1="0" x2="245" y1="175" y2="175" /><line stroke-width="0.1px" x1="0" x2="245" y1="210" y2="210" /></g><rect fill="black" height="6" stroke="black" width="245" x="0" y="210" /><rect fill="black" height="245" stroke="black" width="6" x="-6" y="0" /><rect fill="black" height="245" stroke="black" width="6" x="245" y="0" /><circle cx="87.5" cy="157.5" fill="white" r="11.666666666666666" stroke="black" /><circle cx="87.5" cy="192.5" fill="black" r="11.666666666666666" stroke="black" /><circle cx="122.5" cy="192.5" fill="black" r="11.666666666666666" stroke="black" /></g></g><g class="frame" id="_fr4" transform="scale(1.0)"><rect fill="white" height="280" width="280" x="0" y="0" /><g transform="translate(17.5,17.5)"><g id="vline" stroke="gray"><line stroke-width="1px" x1="35" x2="35" y1="0" y2="210" /><line stroke-width="1px" x1="70" x2="70" y1="0" y2="210" /><line stroke-width="1px" x1="105" x2="105" y1="0" y2="210" /><line stroke-width="1px" x1="140" x2="140" y1="0" y2="210" /><line stroke-width="1px" x1="175" x2="175" y1="0" y2="210" /><line stroke-width="1px" x1="210" x2="210" y1="0" y2="210" /></g><g id="vline" stroke="gray"><line stroke-width="0.1px" x1="0" x2="245" y1="35" y2="35" /><line stroke-width="0.1px" x1="0" x2="245" y1="70" y2="70" /><line stroke-width="0.1px" x1="0" x2="245" y1="105" y2="105" /><line stroke-width="0.1px" x1="0" x2="245" y1="140" y2="140" /><line stroke-width="0.1px" x1="0" x2="245" y1="175" y2="175" /><line stroke-width="0.1px" x1="0" x2="245" y1="210" y2="210" /></g><rect fill="black" height="6" stroke="black" width="245" x="0" y="210" /><rect fill="black" height="245" stroke="black" width="6" x="-6" y="0" /><rect fill="black" height="245" stroke="black" width="6" x="245" y="0" /><circle cx="87.5" cy="157.5" fill="white" r="11.666666666666666" stroke="black" /><circle cx="87.5" cy="192.5" fill="black" r="11.666666666666666" stroke="black" /><circle cx="122.5" cy="192.5" fill="black" r="11.666666666666666" stroke="black" /><circle cx="157.5" cy="192.5" fill="white" r="11.666666666666666" stroke="black" /></g></g><g class="frame" id="_fr5" transform="scale(1.0)"><rect fill="white" height="280" width="280" x="0" y="0" /><g transform="translate(17.5,17.5)"><g id="vline" stroke="gray"><line stroke-width="1px" x1="35" x2="35" y1="0" y2="210" /><line stroke-width="1px" x1="70" x2="70" y1="0" y2="210" /><line stroke-width="1px" x1="105" x2="105" y1="0" y2="210" /><line stroke-width="1px" x1="140" x2="140" y1="0" y2="210" /><line stroke-width="1px" x1="175" x2="175" y1="0" y2="210" /><line stroke-width="1px" x1="210" x2="210" y1="0" y2="210" /></g><g id="vline" stroke="gray"><line stroke-width="0.1px" x1="0" x2="245" y1="35" y2="35" /><line stroke-width="0.1px" x1="0" x2="245" y1="70" y2="70" /><line stroke-width="0.1px" x1="0" x2="245" y1="105" y2="105" /><line stroke-width="0.1px" x1="0" x2="245" y1="140" y2="140" /><line stroke-width="0.1px" x1="0" x2="245" y1="175" y2="175" /><line stroke-width="0.1px" x1="0" x2="245" y1="210" y2="210" /></g><rect fill="black" height="6" stroke="black" width="245" x="0" y="210" /><rect fill="black" height="245" stroke="black" width="6" x="-6" y="0" /><rect fill="black" height="245" stroke="black" width="6" x="245" y="0" /><circle cx="87.5" cy="157.5" fill="white" r="11.666666666666666" stroke="black" /><circle cx="52.5" cy="192.5" fill="black" r="11.666666666666666" stroke="black" /><circle cx="87.5" cy="192.5" fill="black" r="11.666666666666666" stroke="black" /><circle cx="122.5" cy="192.5" fill="black" r="11.666666666666666" stroke="black" /><circle cx="157.5" cy="192.5" fill="white" r="11.666666666666666" stroke="black" /></g></g><g class="frame" id="_fr6" transform="scale(1.0)"><rect fill="white" height="280" width="280" x="0" y="0" /><g transform="translate(17.5,17.5)"><g id="vline" stroke="gray"><line stroke-width="1px" x1="35" x2="35" y1="0" y2="210" /><line stroke-width="1px" x1="70" x2="70" y1="0" y2="210" /><line stroke-width="1px" x1="105" x2="105" y1="0" y2="210" /><line stroke-width="1px" x1="140" x2="140" y1="0" y2="210" /><line stroke-width="1px" x1="175" x2="175" y1="0" y2="210" /><line stroke-width="1px" x1="210" x2="210" y1="0" y2="210" /></g><g id="vline" stroke="gray"><line stroke-width="0.1px" x1="0" x2="245" y1="35" y2="35" /><line stroke-width="0.1px" x1="0" x2="245" y1="70" y2="70" /><line stroke-width="0.1px" x1="0" x2="245" y1="105" y2="105" /><line stroke-width="0.1px" x1="0" x2="245" y1="140" y2="140" /><line stroke-width="0.1px" x1="0" x2="245" y1="175" y2="175" /><line stroke-width="0.1px" x1="0" x2="245" y1="210" y2="210" /></g><rect fill="black" height="6" stroke="black" width="245" x="0" y="210" /><rect fill="black" height="245" stroke="black" width="6" x="-6" y="0" /><rect fill="black" height="245" stroke="black" width="6" x="245" y="0" /><circle cx="87.5" cy="157.5" fill="white" r="11.666666666666666" stroke="black" /><circle cx="17.5" cy="192.5" fill="white" r="11.666666666666666" stroke="black" /><circle cx="52.5" cy="192.5" fill="black" r="11.666666666666666" stroke="black" /><circle cx="87.5" cy="192.5" fill="black" r="11.666666666666666" stroke="black" /><circle cx="122.5" cy="192.5" fill="black" r="11.666666666666666" stroke="black" /><circle cx="157.5" cy="192.5" fill="white" r="11.666666666666666" stroke="black" /></g></g><g class="frame" id="_fr7" transform="scale(1.0)"><rect fill="white" height="280" width="280" x="0" y="0" /><g transform="translate(17.5,17.5)"><g id="vline" stroke="gray"><line stroke-width="1px" x1="35" x2="35" y1="0" y2="210" /><line stroke-width="1px" x1="70" x2="70" y1="0" y2="210" /><line stroke-width="1px" x1="105" x2="105" y1="0" y2="210" /><line stroke-width="1px" x1="140" x2="140" y1="0" y2="210" /><line stroke-width="1px" x1="175" x2="175" y1="0" y2="210" /><line stroke-width="1px" x1="210" x2="210" y1="0" y2="210" /></g><g id="vline" stroke="gray"><line stroke-width="0.1px" x1="0" x2="245" y1="35" y2="35" /><line stroke-width="0.1px" x1="0" x2="245" y1="70" y2="70" /><line stroke-width="0.1px" x1="0" x2="245" y1="105" y2="105" /><line stroke-width="0.1px" x1="0" x2="245" y1="140" y2="140" /><line stroke-width="0.1px" x1="0" x2="245" y1="175" y2="175" /><line stroke-width="0.1px" x1="0" x2="245" y1="210" y2="210" /></g><rect fill="black" height="6" stroke="black" width="245" x="0" y="210" /><rect fill="black" height="245" stroke="black" width="6" x="-6" y="0" /><rect fill="black" height="245" stroke="black" width="6" x="245" y="0" /><circle cx="52.5" cy="157.5" fill="black" r="11.666666666666666" stroke="black" /><circle cx="87.5" cy="157.5" fill="white" r="11.666666666666666" stroke="black" /><circle cx="17.5" cy="192.5" fill="white" r="11.666666666666666" stroke="black" /><circle cx="52.5" cy="192.5" fill="black" r="11.666666666666666" stroke="black" /><circle cx="87.5" cy="192.5" fill="black" r="11.666666666666666" stroke="black" /><circle cx="122.5" cy="192.5" fill="black" r="11.666666666666666" stroke="black" /><circle cx="157.5" cy="192.5" fill="white" r="11.666666666666666" stroke="black" /></g></g><g class="frame" id="_fr8" transform="scale(1.0)"><rect fill="white" height="280" width="280" x="0" y="0" /><g transform="translate(17.5,17.5)"><g id="vline" stroke="gray"><line stroke-width="1px" x1="35" x2="35" y1="0" y2="210" /><line stroke-width="1px" x1="70" x2="70" y1="0" y2="210" /><line stroke-width="1px" x1="105" x2="105" y1="0" y2="210" /><line stroke-width="1px" x1="140" x2="140" y1="0" y2="210" /><line stroke-width="1px" x1="175" x2="175" y1="0" y2="210" /><line stroke-width="1px" x1="210" x2="210" y1="0" y2="210" /></g><g id="vline" stroke="gray"><line stroke-width="0.1px" x1="0" x2="245" y1="35" y2="35" /><line stroke-width="0.1px" x1="0" x2="245" y1="70" y2="70" /><line stroke-width="0.1px" x1="0" x2="245" y1="105" y2="105" /><line stroke-width="0.1px" x1="0" x2="245" y1="140" y2="140" /><line stroke-width="0.1px" x1="0" x2="245" y1="175" y2="175" /><line stroke-width="0.1px" x1="0" x2="245" y1="210" y2="210" /></g><rect fill="black" height="6" stroke="black" width="245" x="0" y="210" /><rect fill="black" height="245" stroke="black" width="6" x="-6" y="0" /><rect fill="black" height="245" stroke="black" width="6" x="245" y="0" /><circle cx="87.5" cy="122.5" fill="white" r="11.666666666666666" stroke="black" /><circle cx="52.5" cy="157.5" fill="black" r="11.666666666666666" stroke="black" /><circle cx="87.5" cy="157.5" fill="white" r="11.666666666666666" stroke="black" /><circle cx="17.5" cy="192.5" fill="white" r="11.666666666666666" stroke="black" /><circle cx="52.5" cy="192.5" fill="black" r="11.666666666666666" stroke="black" /><circle cx="87.5" cy="192.5" fill="black" r="11.666666666666666" stroke="black" /><circle cx="122.5" cy="192.5" fill="black" r="11.666666666666666" stroke="black" /><circle cx="157.5" cy="192.5" fill="white" r="11.666666666666666" stroke="black" /></g></g><g class="frame" id="_fr9" transform="scale(1.0)"><rect fill="white" height="280" width="280" x="0" y="0" /><g transform="translate(17.5,17.5)"><g id="vline" stroke="gray"><line stroke-width="1px" x1="35" x2="35" y1="0" y2="210" /><line stroke-width="1px" x1="70" x2="70" y1="0" y2="210" /><line stroke-width="1px" x1="105" x2="105" y1="0" y2="210" /><line stroke-width="1px" x1="140" x2="140" y1="0" y2="210" /><line stroke-width="1px" x1="175" x2="175" y1="0" y2="210" /><line stroke-width="1px" x1="210" x2="210" y1="0" y2="210" /></g><g id="vline" stroke="gray"><line stroke-width="0.1px" x1="0" x2="245" y1="35" y2="35" /><line stroke-width="0.1px" x1="0" x2="245" y1="70" y2="70" /><line stroke-width="0.1px" x1="0" x2="245" y1="105" y2="105" /><line stroke-width="0.1px" x1="0" x2="245" y1="140" y2="140" /><line stroke-width="0.1px" x1="0" x2="245" y1="175" y2="175" /><line stroke-width="0.1px" x1="0" x2="245" y1="210" y2="210" /></g><rect fill="black" height="6" stroke="black" width="245" x="0" y="210" /><rect fill="black" height="245" stroke="black" width="6" x="-6" y="0" /><rect fill="black" height="245" stroke="black" width="6" x="245" y="0" /><circle cx="52.5" cy="122.5" fill="black" r="11.666666666666666" stroke="black" /><circle cx="87.5" cy="122.5" fill="white" r="11.666666666666666" stroke="black" /><circle cx="52.5" cy="157.5" fill="black" r="11.666666666666666" stroke="black" /><circle cx="87.5" cy="157.5" fill="white" r="11.666666666666666" stroke="black" /><circle cx="17.5" cy="192.5" fill="white" r="11.666666666666666" stroke="black" /><circle cx="52.5" cy="192.5" fill="black" r="11.666666666666666" stroke="black" /><circle cx="87.5" cy="192.5" fill="black" r="11.666666666666666" stroke="black" /><circle cx="122.5" cy="192.5" fill="black" r="11.666666666666666" stroke="black" /><circle cx="157.5" cy="192.5" fill="white" r="11.666666666666666" stroke="black" /></g></g><g class="frame" id="_fra" transform="scale(1.0)"><rect fill="white" height="280" width="280" x="0" y="0" /><g transform="translate(17.5,17.5)"><g id="vline" stroke="gray"><line stroke-width="1px" x1="35" x2="35" y1="0" y2="210" /><line stroke-width="1px" x1="70" x2="70" y1="0" y2="210" /><line stroke-width="1px" x1="105" x2="105" y1="0" y2="210" /><line stroke-width="1px" x1="140" x2="140" y1="0" y2="210" /><line stroke-width="1px" x1="175" x2="175" y1="0" y2="210" /><line stroke-width="1px" x1="210" x2="210" y1="0" y2="210" /></g><g id="vline" stroke="gray"><line stroke-width="0.1px" x1="0" x2="245" y1="35" y2="35" /><line stroke-width="0.1px" x1="0" x2="245" y1="70" y2="70" /><line stroke-width="0.1px" x1="0" x2="245" y1="105" y2="105" /><line stroke-width="0.1px" x1="0" x2="245" y1="140" y2="140" /><line stroke-width="0.1px" x1="0" x2="245" y1="175" y2="175" /><line stroke-width="0.1px" x1="0" x2="245" y1="210" y2="210" /></g><rect fill="black" height="6" stroke="black" width="245" x="0" y="210" /><rect fill="black" height="245" stroke="black" width="6" x="-6" y="0" /><rect fill="black" height="245" stroke="black" width="6" x="245" y="0" /><circle cx="52.5" cy="87.5" fill="white" r="11.666666666666666" stroke="black" /><circle cx="52.5" cy="122.5" fill="black" r="11.666666666666666" stroke="black" /><circle cx="87.5" cy="122.5" fill="white" r="11.666666666666666" stroke="black" /><circle cx="52.5" cy="157.5" fill="black" r="11.666666666666666" stroke="black" /><circle cx="87.5" cy="157.5" fill="white" r="11.666666666666666" stroke="black" /><circle cx="17.5" cy="192.5" fill="white" r="11.666666666666666" stroke="black" /><circle cx="52.5" cy="192.5" fill="black" r="11.666666666666666" stroke="black" /><circle cx="87.5" cy="192.5" fill="black" r="11.666666666666666" stroke="black" /><circle cx="122.5" cy="192.5" fill="black" r="11.666666666666666" stroke="black" /><circle cx="157.5" cy="192.5" fill="white" r="11.666666666666666" stroke="black" /></g></g><g class="frame" id="_frb" transform="scale(1.0)"><rect fill="white" height="280" width="280" x="0" y="0" /><g transform="translate(17.5,17.5)"><g id="vline" stroke="gray"><line stroke-width="1px" x1="35" x2="35" y1="0" y2="210" /><line stroke-width="1px" x1="70" x2="70" y1="0" y2="210" /><line stroke-width="1px" x1="105" x2="105" y1="0" y2="210" /><line stroke-width="1px" x1="140" x2="140" y1="0" y2="210" /><line stroke-width="1px" x1="175" x2="175" y1="0" y2="210" /><line stroke-width="1px" x1="210" x2="210" y1="0" y2="210" /></g><g id="vline" stroke="gray"><line stroke-width="0.1px" x1="0" x2="245" y1="35" y2="35" /><line stroke-width="0.1px" x1="0" x2="245" y1="70" y2="70" /><line stroke-width="0.1px" x1="0" x2="245" y1="105" y2="105" /><line stroke-width="0.1px" x1="0" x2="245" y1="140" y2="140" /><line stroke-width="0.1px" x1="0" x2="245" y1="175" y2="175" /><line stroke-width="0.1px" x1="0" x2="245" y1="210" y2="210" /></g><rect fill="black" height="6" stroke="black" width="245" x="0" y="210" /><rect fill="black" height="245" stroke="black" width="6" x="-6" y="0" /><rect fill="black" height="245" stroke="black" width="6" x="245" y="0" /><circle cx="52.5" cy="87.5" fill="white" r="11.666666666666666" stroke="black" /><circle cx="52.5" cy="122.5" fill="black" r="11.666666666666666" stroke="black" /><circle cx="87.5" cy="122.5" fill="white" r="11.666666666666666" stroke="black" /><circle cx="52.5" cy="157.5" fill="black" r="11.666666666666666" stroke="black" /><circle cx="87.5" cy="157.5" fill="white" r="11.666666666666666" stroke="black" /><circle cx="122.5" cy="157.5" fill="black" r="11.666666666666666" stroke="black" /><circle cx="17.5" cy="192.5" fill="white" r="11.666666666666666" stroke="black" /><circle cx="52.5" cy="192.5" fill="black" r="11.666666666666666" stroke="black" /><circle cx="87.5" cy="192.5" fill="black" r="11.666666666666666" stroke="black" /><circle cx="122.5" cy="192.5" fill="black" r="11.666666666666666" stroke="black" /><circle cx="157.5" cy="192.5" fill="white" r="11.666666666666666" stroke="black" /></g></g><g class="frame" id="_frc" transform="scale(1.0)"><rect fill="white" height="280" width="280" x="0" y="0" /><g transform="translate(17.5,17.5)"><g id="vline" stroke="gray"><line stroke-width="1px" x1="35" x2="35" y1="0" y2="210" /><line stroke-width="1px" x1="70" x2="70" y1="0" y2="210" /><line stroke-width="1px" x1="105" x2="105" y1="0" y2="210" /><line stroke-width="1px" x1="140" x2="140" y1="0" y2="210" /><line stroke-width="1px" x1="175" x2="175" y1="0" y2="210" /><line stroke-width="1px" x1="210" x2="210" y1="0" y2="210" /></g><g id="vline" stroke="gray"><line stroke-width="0.1px" x1="0" x2="245" y1="35" y2="35" /><line stroke-width="0.1px" x1="0" x2="245" y1="70" y2="70" /><line stroke-width="0.1px" x1="0" x2="245" y1="105" y2="105" /><line stroke-width="0.1px" x1="0" x2="245" y1="140" y2="140" /><line stroke-width="0.1px" x1="0" x2="245" y1="175" y2="175" /><line stroke-width="0.1px" x1="0" x2="245" y1="210" y2="210" /></g><rect fill="black" height="6" stroke="black" width="245" x="0" y="210" /><rect fill="black" height="245" stroke="black" width="6" x="-6" y="0" /><rect fill="black" height="245" stroke="black" width="6" x="245" y="0" /><circle cx="52.5" cy="87.5" fill="white" r="11.666666666666666" stroke="black" /><circle cx="87.5" cy="87.5" fill="white" r="11.666666666666666" stroke="black" /><circle cx="52.5" cy="122.5" fill="black" r="11.666666666666666" stroke="black" /><circle cx="87.5" cy="122.5" fill="white" r="11.666666666666666" stroke="black" /><circle cx="52.5" cy="157.5" fill="black" r="11.666666666666666" stroke="black" /><circle cx="87.5" cy="157.5" fill="white" r="11.666666666666666" stroke="black" /><circle cx="122.5" cy="157.5" fill="black" r="11.666666666666666" stroke="black" /><circle cx="17.5" cy="192.5" fill="white" r="11.666666666666666" stroke="black" /><circle cx="52.5" cy="192.5" fill="black" r="11.666666666666666" stroke="black" /><circle cx="87.5" cy="192.5" fill="black" r="11.666666666666666" stroke="black" /><circle cx="122.5" cy="192.5" fill="black" r="11.666666666666666" stroke="black" /><circle cx="157.5" cy="192.5" fill="white" r="11.666666666666666" stroke="black" /></g></g><g class="frame" id="_frd" transform="scale(1.0)"><rect fill="white" height="280" width="280" x="0" y="0" /><g transform="translate(17.5,17.5)"><g id="vline" stroke="gray"><line stroke-width="1px" x1="35" x2="35" y1="0" y2="210" /><line stroke-width="1px" x1="70" x2="70" y1="0" y2="210" /><line stroke-width="1px" x1="105" x2="105" y1="0" y2="210" /><line stroke-width="1px" x1="140" x2="140" y1="0" y2="210" /><line stroke-width="1px" x1="175" x2="175" y1="0" y2="210" /><line stroke-width="1px" x1="210" x2="210" y1="0" y2="210" /></g><g id="vline" stroke="gray"><line stroke-width="0.1px" x1="0" x2="245" y1="35" y2="35" /><line stroke-width="0.1px" x1="0" x2="245" y1="70" y2="70" /><line stroke-width="0.1px" x1="0" x2="245" y1="105" y2="105" /><line stroke-width="0.1px" x1="0" x2="245" y1="140" y2="140" /><line stroke-width="0.1px" x1="0" x2="245" y1="175" y2="175" /><line stroke-width="0.1px" x1="0" x2="245" y1="210" y2="210" /></g><rect fill="black" height="6" stroke="black" width="245" x="0" y="210" /><rect fill="black" height="245" stroke="black" width="6" x="-6" y="0" /><rect fill="black" height="245" stroke="black" width="6" x="245" y="0" /><circle cx="52.5" cy="87.5" fill="white" r="11.666666666666666" stroke="black" /><circle cx="87.5" cy="87.5" fill="white" r="11.666666666666666" stroke="black" /><circle cx="52.5" cy="122.5" fill="black" r="11.666666666666666" stroke="black" /><circle cx="87.5" cy="122.5" fill="white" r="11.666666666666666" stroke="black" /><circle cx="52.5" cy="157.5" fill="black" r="11.666666666666666" stroke="black" /><circle cx="87.5" cy="157.5" fill="white" r="11.666666666666666" stroke="black" /><circle cx="122.5" cy="157.5" fill="black" r="11.666666666666666" stroke="black" /><circle cx="157.5" cy="157.5" fill="black" r="11.666666666666666" stroke="black" /><circle cx="17.5" cy="192.5" fill="white" r="11.666666666666666" stroke="black" /><circle cx="52.5" cy="192.5" fill="black" r="11.666666666666666" stroke="black" /><circle cx="87.5" cy="192.5" fill="black" r="11.666666666666666" stroke="black" /><circle cx="122.5" cy="192.5" fill="black" r="11.666666666666666" stroke="black" /><circle cx="157.5" cy="192.5" fill="white" r="11.666666666666666" stroke="black" /></g></g><g class="frame" id="_fre" transform="scale(1.0)"><rect fill="white" height="280" width="280" x="0" y="0" /><g transform="translate(17.5,17.5)"><g id="vline" stroke="gray"><line stroke-width="1px" x1="35" x2="35" y1="0" y2="210" /><line stroke-width="1px" x1="70" x2="70" y1="0" y2="210" /><line stroke-width="1px" x1="105" x2="105" y1="0" y2="210" /><line stroke-width="1px" x1="140" x2="140" y1="0" y2="210" /><line stroke-width="1px" x1="175" x2="175" y1="0" y2="210" /><line stroke-width="1px" x1="210" x2="210" y1="0" y2="210" /></g><g id="vline" stroke="gray"><line stroke-width="0.1px" x1="0" x2="245" y1="35" y2="35" /><line stroke-width="0.1px" x1="0" x2="245" y1="70" y2="70" /><line stroke-width="0.1px" x1="0" x2="245" y1="105" y2="105" /><line stroke-width="0.1px" x1="0" x2="245" y1="140" y2="140" /><line stroke-width="0.1px" x1="0" x2="245" y1="175" y2="175" /><line stroke-width="0.1px" x1="0" x2="245" y1="210" y2="210" /></g><rect fill="black" height="6" stroke="black" width="245" x="0" y="210" /><rect fill="black" height="245" stroke="black" width="6" x="-6" y="0" /><rect fill="black" height="245" stroke="black" width="6" x="245" y="0" /><circle cx="87.5" cy="52.5" fill="white" r="11.666666666666666" stroke="black" /><circle cx="52.5" cy="87.5" fill="white" r="11.666666666666666" stroke="black" /><circle cx="87.5" cy="87.5" fill="white" r="11.666666666666666" stroke="black" /><circle cx="52.5" cy="122.5" fill="black" r="11.666666666666666" stroke="black" /><circle cx="87.5" cy="122.5" fill="white" r="11.666666666666666" stroke="black" /><circle cx="52.5" cy="157.5" fill="black" r="11.666666666666666" stroke="black" /><circle cx="87.5" cy="157.5" fill="white" r="11.666666666666666" stroke="black" /><circle cx="122.5" cy="157.5" fill="black" r="11.666666666666666" stroke="black" /><circle cx="157.5" cy="157.5" fill="black" r="11.666666666666666" stroke="black" /><circle cx="17.5" cy="192.5" fill="white" r="11.666666666666666" stroke="black" /><circle cx="52.5" cy="192.5" fill="black" r="11.666666666666666" stroke="black" /><circle cx="87.5" cy="192.5" fill="black" r="11.666666666666666" stroke="black" /><circle cx="122.5" cy="192.5" fill="black" r="11.666666666666666" stroke="black" /><circle cx="157.5" cy="192.5" fill="white" r="11.666666666666666" stroke="black" /></g></g></svg>